<svg width="16" height="16" viewBox="0 0 16 16" fill="none" xmlns="http://www.w3.org/2000/svg">
<path d="M7.99998 4C9.76822 4 11.3764 4.92352 12.57 5.88305C13.9507 6.99291 13.9507 9.00709 12.57 10.1169C11.3764 11.0765 9.76822 12 7.99998 12C6.23174 12 4.62358 11.0765 3.42991 10.1169C2.04925 9.00709 2.04925 6.99291 3.42992 5.88305C4.62358 4.92352 6.23174 4 7.99998 4Z" stroke="#E6E6E6" stroke-linecap="round" stroke-linejoin="round"/>
<path d="M8 9.99999C8.39562 10.0008 8.78253 9.88386 9.11141 9.66397C9.44029 9.44408 9.69627 9.13124 9.84668 8.76533C9.99803 8.39993 10.0377 7.99784 9.96053 7.60993C9.8834 7.22202 9.69295 6.8657 9.41333 6.58599C9.13513 6.30644 8.78006 6.11593 8.39331 6.03867C8.00394 5.96105 7.6003 6.00047 7.23332 6.15199C6.86916 6.30511 6.55808 6.56195 6.33879 6.89053C6.11949 7.21912 6.00168 7.60495 6 7.99999C6 8.53042 6.2107 9.03912 6.58577 9.41419C6.96085 9.78927 7.46957 9.99999 8 9.99999Z" stroke="#E6E6E6" stroke-linecap="round" stroke-linejoin="round"/>
</svg>
