<?xml version="1.0" standalone="no"?>
<!DOCTYPE svg PUBLIC "-//W3C//DTD SVG 20010904//EN"
 "http://www.w3.org/TR/2001/REC-SVG-20010904/DTD/svg10.dtd">
<svg version="1.0" xmlns="http://www.w3.org/2000/svg"
 width="14173.000000pt" height="14173.000000pt" viewBox="0 0 14173.000000 14173.000000"
 preserveAspectRatio="xMidYMid meet">

<g transform="translate(0.000000,14173.000000) scale(0.100000,-0.100000)"
fill="#000000" stroke="none">
<path d="M81560 78321 c-149 -8 -271 -22 -355 -41 -22 -6 -88 -21 -146 -35
-58 -13 -159 -31 -224 -40 -131 -17 -215 -38 -260 -65 -29 -18 -105 -40 -250
-74 -38 -9 -90 -30 -116 -47 -41 -26 -183 -79 -212 -79 -5 0 -47 -23 -93 -50
-46 -28 -111 -60 -146 -71 -34 -12 -78 -33 -98 -48 -47 -37 -117 -76 -161 -90
-20 -6 -49 -25 -64 -41 -16 -17 -52 -41 -80 -54 -27 -12 -75 -44 -105 -70 -30
-26 -73 -57 -95 -68 -22 -11 -60 -37 -84 -57 -24 -20 -63 -49 -86 -66 -114
-79 -501 -448 -604 -575 -20 -24 -51 -57 -69 -74 -18 -16 -42 -45 -52 -65 -10
-20 -35 -52 -55 -71 -20 -19 -49 -60 -65 -90 -15 -30 -42 -68 -59 -85 -18 -16
-48 -59 -68 -95 -20 -36 -52 -83 -73 -105 -20 -23 -42 -61 -49 -87 -7 -25 -31
-67 -53 -94 -48 -58 -65 -90 -85 -158 -8 -28 -28 -66 -44 -84 -39 -44 -57 -80
-73 -150 -7 -32 -32 -90 -55 -128 -23 -38 -46 -85 -51 -104 -5 -19 -16 -66
-26 -105 -9 -38 -25 -86 -36 -105 -36 -63 -68 -164 -83 -263 -8 -54 -25 -130
-36 -170 -70 -242 -79 -293 -96 -535 -15 -215 -17 -680 -21 -5122 -4 -4984 -3
-5104 33 -5240 13 -50 52 -120 67 -120 4 0 23 -24 42 -54 35 -55 92 -106 117
-106 8 0 37 -16 66 -36 81 -55 172 -84 274 -84 129 0 190 15 295 73 51 29 112
66 137 83 46 33 163 191 197 267 19 41 20 123 20 4863 0 3150 4 4910 10 5080
11 272 22 347 80 570 16 61 34 149 41 195 14 95 39 177 67 217 23 32 45 95 62
177 8 37 25 77 45 105 43 60 60 95 74 156 8 33 27 68 53 100 38 45 88 136 88
159 0 6 16 28 35 50 19 22 49 64 65 92 17 29 52 78 80 108 27 30 56 67 64 83
8 16 30 42 48 58 18 16 48 49 67 72 48 61 244 254 324 319 37 30 67 59 67 63
0 4 21 22 48 39 26 17 67 49 92 72 25 22 67 52 95 66 27 14 64 38 82 53 17 15
64 44 105 63 40 20 93 52 118 71 25 20 70 44 100 52 66 20 147 59 176 85 11
11 65 30 120 44 54 13 138 42 185 64 72 34 109 44 220 61 139 20 176 27 294
55 123 28 176 35 345 44 281 15 517 -6 745 -67 22 -6 90 -18 150 -26 162 -23
200 -31 237 -53 52 -30 136 -60 225 -82 59 -13 101 -31 144 -60 34 -23 94 -51
133 -62 41 -13 88 -36 111 -54 22 -18 74 -49 115 -70 41 -21 91 -51 110 -68
19 -16 58 -41 87 -54 28 -13 67 -39 85 -56 18 -18 57 -50 86 -71 54 -39 80
-62 232 -202 106 -98 326 -333 367 -394 17 -25 48 -62 68 -83 20 -21 45 -58
55 -82 10 -24 34 -61 53 -82 19 -21 50 -72 70 -113 19 -41 49 -91 66 -110 17
-19 38 -60 47 -90 19 -64 58 -145 89 -182 13 -15 32 -65 45 -119 13 -51 43
-135 67 -186 36 -77 46 -114 58 -201 8 -59 24 -143 35 -187 12 -44 28 -109 36
-145 8 -36 20 -87 26 -115 9 -37 13 -1336 17 -4815 6 -4479 7 -4768 23 -4815
10 -28 33 -69 51 -90 19 -22 43 -58 55 -80 24 -47 53 -76 102 -100 19 -9 51
-32 70 -51 59 -56 132 -76 303 -81 168 -6 272 11 330 53 18 13 50 36 72 51 54
36 115 94 115 109 0 6 20 34 45 62 33 37 49 66 62 113 16 60 18 347 23 4789 4
2599 10 4739 14 4755 17 67 62 301 110 575 8 44 29 106 51 150 20 41 45 114
56 162 24 108 31 127 63 165 31 36 58 99 75 169 8 34 23 61 43 80 17 16 46 62
65 103 18 40 49 92 68 114 19 22 45 61 57 86 12 25 36 61 53 81 18 19 48 60
68 90 79 120 511 553 622 623 22 13 58 41 80 62 22 20 59 45 83 56 24 10 63
35 86 54 24 19 74 51 112 71 37 19 89 50 114 68 25 18 83 46 130 62 46 16 96
38 110 50 46 38 109 63 205 79 22 4 78 25 125 47 90 42 161 61 275 73 63 6
108 15 300 60 120 28 222 37 449 37 234 0 343 -10 501 -47 96 -23 140 -31 285
-55 133 -21 182 -35 258 -75 43 -22 186 -65 219 -65 7 0 34 -15 60 -34 64 -45
98 -61 162 -76 31 -7 67 -25 86 -41 18 -16 72 -49 119 -73 47 -24 102 -57 123
-74 21 -16 61 -42 88 -57 28 -15 70 -47 95 -70 25 -23 59 -50 75 -60 17 -11
55 -41 85 -67 30 -27 82 -72 114 -101 86 -75 190 -182 248 -254 27 -35 54 -63
58 -63 5 0 23 -21 41 -47 18 -27 54 -71 80 -99 26 -28 57 -70 69 -95 12 -24
42 -65 65 -90 24 -25 46 -61 50 -80 8 -37 43 -97 69 -118 23 -19 51 -75 66
-131 6 -25 32 -75 57 -111 34 -50 50 -87 64 -149 18 -76 30 -107 88 -215 12
-25 27 -85 37 -150 9 -61 27 -144 40 -185 13 -41 29 -89 35 -107 5 -17 17 -71
26 -120 16 -81 18 -467 23 -5178 4 -4183 7 -5095 18 -5120 7 -16 24 -43 36
-60 13 -16 35 -53 49 -81 48 -94 130 -170 251 -230 28 -15 59 -33 68 -41 26
-23 132 -42 230 -43 98 0 217 32 272 73 17 13 47 29 66 37 54 20 98 57 120 99
10 21 30 45 44 55 38 24 55 65 82 197 l24 120 0 4917 c0 4262 -2 4944 -15
5117 -8 110 -18 241 -21 290 -8 140 -33 278 -66 368 -29 80 -45 147 -69 296
-7 49 -24 98 -49 145 -20 39 -45 103 -54 141 -31 124 -39 145 -88 228 -26 45
-48 92 -48 104 0 33 -46 131 -80 169 -16 19 -33 47 -36 62 -12 49 -54 127 -93
175 -21 25 -42 62 -45 82 -4 21 -26 56 -54 89 -26 29 -60 78 -75 107 -15 30
-46 74 -68 99 -23 25 -50 63 -61 85 -11 22 -42 63 -69 92 -27 28 -49 56 -49
60 0 5 -26 36 -57 70 -32 33 -105 111 -163 173 -128 137 -442 428 -501 466
-24 15 -57 40 -74 56 -16 16 -51 40 -77 53 -25 13 -67 43 -93 65 -26 22 -70
52 -98 67 -28 14 -72 43 -97 63 -25 21 -69 45 -97 55 -29 9 -55 20 -58 25 -13
21 -146 99 -178 105 -20 4 -77 31 -126 60 -50 30 -107 57 -127 61 -53 10 -152
50 -194 78 -38 26 -115 51 -195 62 -27 4 -81 20 -120 37 -122 51 -176 67 -269
77 -90 11 -282 47 -297 56 -9 5 -80 19 -199 40 -198 33 -742 40 -1045 13 -140
-12 -151 -14 -320 -54 -77 -19 -200 -41 -273 -50 -134 -17 -261 -52 -292 -80
-9 -9 -72 -27 -139 -40 -67 -14 -139 -33 -159 -44 -20 -10 -59 -30 -87 -44
-27 -14 -79 -33 -115 -43 -36 -9 -92 -34 -125 -55 -33 -21 -91 -50 -130 -64
-74 -28 -119 -51 -152 -80 -11 -9 -55 -33 -99 -52 -43 -20 -95 -50 -114 -68
-19 -19 -62 -45 -95 -60 -33 -14 -76 -41 -95 -59 -19 -18 -69 -56 -110 -83
-42 -28 -82 -59 -90 -69 -8 -9 -35 -30 -59 -45 -24 -16 -62 -45 -85 -66 -22
-21 -59 -51 -81 -67 -56 -42 -406 -395 -453 -458 -22 -29 -52 -64 -67 -78 -15
-14 -36 -42 -46 -63 -11 -20 -33 -50 -50 -65 -17 -15 -47 -54 -66 -86 -19 -33
-54 -82 -79 -110 -30 -34 -50 -69 -60 -106 -29 -104 -88 -125 -184 -67 -47 27
-60 42 -89 100 -18 37 -53 89 -76 115 -23 26 -52 67 -65 91 -12 25 -44 67 -70
95 -26 28 -52 60 -58 71 -34 64 -323 356 -617 625 -16 15 -55 44 -85 66 -30
21 -72 53 -92 71 -21 18 -59 43 -85 57 -26 14 -68 43 -93 66 -25 22 -72 54
-105 70 -33 17 -71 42 -85 55 -14 13 -54 37 -90 54 -36 16 -101 52 -145 80
-43 28 -86 51 -95 51 -21 0 -113 45 -168 83 -24 16 -84 40 -135 54 -99 27
-121 36 -152 63 -28 24 -98 47 -178 60 -77 12 -143 33 -190 59 -48 28 -127 47
-287 70 -80 12 -199 34 -265 50 -66 16 -184 37 -262 45 -168 19 -606 28 -823
17z"/>
<path d="M102760 78245 c-80 -8 -266 -23 -415 -35 -279 -21 -325 -27 -460 -62
-190 -49 -225 -56 -325 -68 -114 -14 -230 -42 -264 -63 -30 -20 -148 -53 -239
-66 -45 -7 -109 -27 -155 -47 -42 -20 -91 -42 -109 -50 -17 -8 -37 -14 -45
-14 -34 0 -174 -43 -200 -61 -44 -32 -155 -79 -185 -79 -33 0 -144 -51 -184
-84 -16 -13 -50 -29 -76 -35 -64 -13 -114 -35 -149 -64 -34 -28 -87 -57 -106
-57 -23 0 -152 -66 -172 -88 -10 -12 -40 -28 -67 -37 -50 -17 -155 -80 -177
-108 -8 -9 -37 -24 -65 -33 -29 -9 -72 -34 -97 -54 -25 -21 -74 -54 -111 -73
-36 -20 -76 -48 -90 -63 -13 -14 -53 -41 -89 -59 -36 -18 -74 -42 -84 -54 -11
-12 -36 -31 -55 -43 -20 -12 -72 -52 -116 -88 -44 -37 -99 -79 -122 -94 -23
-15 -44 -34 -47 -42 -3 -8 -33 -32 -67 -54 -34 -22 -80 -58 -102 -80 -21 -22
-51 -47 -66 -54 -14 -8 -45 -34 -68 -57 -22 -24 -81 -80 -129 -124 -48 -44
-104 -98 -123 -119 -20 -21 -47 -48 -60 -60 -31 -26 -48 -44 -141 -145 -41
-46 -96 -104 -121 -129 -25 -26 -59 -68 -77 -93 -17 -26 -38 -49 -47 -52 -8
-4 -31 -32 -52 -64 -20 -32 -52 -75 -71 -95 -19 -21 -46 -55 -60 -75 -14 -21
-49 -64 -78 -96 -29 -33 -59 -73 -68 -90 -8 -18 -29 -45 -46 -62 -18 -16 -46
-57 -62 -90 -17 -33 -49 -80 -71 -105 -21 -25 -52 -72 -68 -105 -16 -33 -45
-76 -64 -95 -18 -19 -43 -61 -55 -92 -12 -32 -37 -77 -57 -100 -34 -41 -49
-68 -88 -165 -10 -23 -27 -50 -37 -60 -24 -22 -54 -79 -78 -149 -10 -28 -32
-71 -50 -95 -38 -54 -66 -114 -75 -167 -3 -22 -22 -64 -42 -93 -50 -76 -73
-124 -73 -152 0 -38 -36 -133 -74 -195 -25 -40 -41 -85 -55 -152 -13 -58 -36
-128 -62 -180 -22 -47 -48 -119 -56 -160 -30 -153 -46 -216 -63 -250 -28 -56
-57 -168 -70 -265 -18 -137 -38 -243 -60 -320 -46 -159 -56 -229 -69 -465 -6
-107 -17 -260 -24 -340 -16 -189 -15 -893 1 -1060 7 -69 17 -216 23 -328 11
-215 24 -310 59 -432 30 -105 57 -242 65 -329 9 -95 34 -192 78 -306 18 -49
40 -128 47 -175 14 -96 51 -207 86 -260 14 -21 31 -76 44 -138 19 -93 46 -161
95 -236 8 -13 20 -48 26 -80 13 -72 40 -136 78 -184 18 -23 38 -68 51 -119 15
-57 33 -96 56 -125 19 -24 50 -85 70 -135 19 -51 50 -111 69 -133 18 -22 46
-71 61 -110 15 -39 45 -91 65 -114 21 -24 41 -56 45 -72 11 -45 30 -78 76
-131 22 -26 52 -73 65 -103 14 -30 40 -71 58 -90 19 -19 41 -51 49 -70 8 -19
37 -62 65 -95 28 -33 64 -83 81 -112 17 -28 49 -69 70 -90 22 -21 46 -54 54
-73 8 -19 29 -48 46 -65 18 -16 44 -48 57 -70 14 -22 49 -65 78 -95 29 -30
109 -116 177 -190 227 -248 429 -444 762 -740 28 -25 70 -58 94 -73 24 -16 60
-43 80 -61 20 -18 52 -41 69 -50 18 -9 56 -37 85 -62 28 -26 76 -62 107 -81
31 -20 72 -50 91 -69 19 -18 58 -42 85 -54 28 -12 61 -32 75 -45 14 -13 66
-47 115 -75 50 -29 101 -63 116 -76 14 -13 52 -34 85 -47 32 -13 91 -46 129
-74 41 -29 90 -55 118 -62 27 -6 74 -31 108 -56 53 -39 137 -75 174 -75 6 0
27 -12 46 -26 43 -32 144 -84 164 -84 24 0 144 -51 201 -85 29 -18 86 -39 131
-49 43 -10 119 -37 169 -61 86 -42 164 -65 264 -79 25 -4 59 -15 75 -26 17
-11 36 -20 43 -20 7 0 31 -9 53 -19 40 -19 132 -40 265 -60 38 -6 118 -26 176
-46 117 -39 220 -58 403 -75 133 -12 204 -23 345 -50 364 -70 1136 -82 1600
-24 25 3 104 16 175 29 136 25 227 37 410 55 125 12 195 28 345 75 58 19 143
39 190 45 118 16 191 36 258 69 31 16 91 36 132 45 164 36 206 48 240 71 42
28 103 51 187 70 58 13 81 23 208 88 28 14 86 37 130 52 44 14 89 34 100 45
23 22 113 63 171 79 22 6 63 28 92 49 29 22 73 47 99 56 27 10 61 22 76 28 16
6 49 28 75 50 26 21 51 38 57 38 20 0 126 59 168 94 24 20 59 41 78 47 19 7
63 33 99 59 36 26 90 62 120 80 30 18 72 48 94 67 21 19 54 42 74 50 20 8 61
37 90 64 30 27 58 49 63 49 5 0 42 28 82 63 39 35 92 77 117 94 25 17 56 43
70 58 14 15 53 46 86 71 34 24 64 50 67 59 4 8 27 28 51 44 25 15 67 50 93 77
27 28 98 97 158 155 61 58 119 116 130 129 12 14 31 34 42 45 57 52 151 154
173 185 13 19 47 62 77 95 29 33 75 85 101 115 27 30 64 78 82 105 18 28 50
67 71 88 21 21 46 52 55 70 9 17 36 52 60 77 24 25 51 63 60 85 9 22 33 58 54
81 20 22 54 71 76 109 21 39 51 83 67 100 16 16 44 62 62 100 18 39 42 79 55
90 23 20 80 129 80 152 0 7 15 30 34 50 38 43 66 95 90 169 9 28 31 69 50 90
30 36 75 133 90 196 3 15 19 43 36 61 26 30 80 164 80 200 0 8 15 37 34 65 44
64 63 108 76 184 11 58 33 114 84 206 13 24 29 76 35 115 15 88 47 191 72 235
24 41 44 120 64 247 9 55 29 143 46 195 53 164 68 231 78 360 20 229 67 500
90 515 4 2 14 -19 21 -48 l14 -52 7 55 c9 71 9 1637 0 1710 l-6 55 -13 -34
c-6 -19 -12 -45 -12 -59 0 -64 -34 40 -59 183 -23 128 -30 185 -41 312 -11
131 -34 244 -70 338 -22 58 -43 148 -60 259 -14 94 -39 174 -74 245 -15 28
-37 102 -50 164 -28 131 -38 159 -73 209 -24 36 -62 151 -63 193 0 11 -6 31
-14 45 -27 52 -69 125 -76 135 -4 6 -13 35 -20 65 -16 70 -35 113 -76 170 -17
25 -37 64 -43 86 -18 66 -50 132 -82 168 -16 19 -38 59 -48 88 -26 75 -48 116
-87 162 -18 21 -40 62 -49 91 -8 31 -30 70 -53 96 -22 24 -54 73 -72 109 -17
36 -45 79 -61 95 -15 17 -37 51 -49 77 -11 26 -44 75 -73 108 -29 33 -66 85
-82 116 -16 31 -44 68 -62 81 -18 14 -37 41 -44 60 -6 20 -35 62 -65 94 -29
31 -60 71 -68 87 -8 16 -30 42 -48 57 -18 15 -40 38 -48 50 -38 56 -394 442
-494 534 -21 20 -57 54 -80 77 -42 41 -313 285 -427 385 -35 30 -84 69 -109
86 -25 17 -61 45 -80 63 -18 17 -52 41 -74 52 -23 11 -70 44 -106 73 -36 29
-90 68 -120 87 -30 19 -66 47 -78 61 -13 14 -44 31 -69 39 -25 7 -68 32 -96
56 -27 24 -81 59 -120 78 -38 18 -82 45 -99 59 -16 14 -63 41 -105 60 -41 19
-97 51 -124 70 -27 20 -66 41 -86 47 -54 14 -101 37 -161 79 -29 21 -76 43
-105 49 -60 14 -117 41 -165 77 -18 14 -81 38 -140 55 -59 17 -120 41 -137 54
-40 30 -111 60 -165 69 -74 11 -131 30 -220 73 -47 23 -105 44 -130 47 -101
15 -194 37 -228 54 -61 31 -193 69 -267 76 -111 12 -213 31 -310 59 -154 45
-221 55 -505 76 -151 11 -313 25 -360 31 -141 17 -822 20 -990 4z m953 -1255
c437 -24 482 -30 607 -70 68 -22 219 -53 364 -75 60 -9 119 -23 130 -30 37
-24 160 -64 261 -85 53 -11 114 -29 134 -39 74 -40 154 -72 234 -92 83 -22
108 -33 163 -72 28 -20 105 -49 165 -61 14 -3 43 -20 65 -37 45 -36 123 -73
175 -83 20 -3 54 -22 77 -42 23 -19 81 -53 129 -75 48 -23 99 -51 113 -63 14
-13 57 -40 95 -61 39 -20 90 -54 115 -75 25 -20 68 -47 95 -59 28 -12 66 -37
85 -55 19 -18 55 -44 80 -59 25 -14 60 -39 78 -56 18 -17 49 -43 70 -58 20
-15 60 -47 87 -72 28 -24 68 -55 90 -69 22 -14 54 -39 70 -56 17 -17 48 -44
70 -60 55 -41 101 -84 315 -297 102 -101 205 -208 228 -238 24 -29 54 -62 68
-73 13 -11 33 -36 43 -56 11 -21 36 -53 56 -72 20 -19 44 -48 52 -65 9 -16 39
-54 68 -85 28 -30 62 -73 75 -95 14 -22 43 -60 66 -85 23 -25 54 -71 69 -103
15 -32 38 -66 50 -76 13 -9 42 -53 64 -96 23 -42 56 -94 74 -114 18 -20 39
-58 46 -83 7 -25 31 -68 53 -94 42 -50 88 -136 88 -165 0 -9 18 -41 40 -72 46
-64 79 -132 80 -162 0 -11 23 -58 50 -105 28 -47 55 -103 61 -125 26 -102 46
-154 77 -198 26 -37 38 -71 52 -147 13 -66 34 -130 64 -192 28 -60 48 -120 56
-168 18 -114 37 -200 55 -250 43 -118 66 -212 75 -314 14 -140 34 -296 54
-406 45 -258 50 -336 50 -710 -1 -347 -2 -373 -28 -540 -46 -296 -65 -431 -72
-520 -7 -96 -38 -249 -58 -288 -19 -38 -63 -216 -72 -287 -7 -63 -42 -168 -74
-223 -20 -34 -43 -115 -54 -192 -4 -25 -28 -83 -53 -130 -26 -48 -55 -122 -68
-170 -15 -61 -31 -98 -57 -132 -23 -30 -47 -80 -63 -133 -17 -55 -39 -100 -60
-125 -19 -22 -48 -77 -65 -121 -17 -44 -48 -102 -68 -128 -21 -26 -46 -70 -56
-97 -19 -49 -46 -92 -90 -139 -12 -13 -29 -43 -36 -66 -8 -23 -35 -68 -61 -98
-25 -31 -56 -74 -67 -96 -11 -22 -39 -60 -62 -85 -22 -25 -51 -65 -64 -90 -13
-25 -34 -54 -46 -65 -12 -11 -41 -47 -63 -79 -22 -33 -64 -87 -94 -120 -29
-34 -77 -88 -106 -120 -149 -169 -319 -342 -498 -506 -218 -201 -281 -254
-339 -292 -30 -19 -64 -45 -75 -58 -11 -12 -40 -32 -65 -45 -25 -13 -54 -33
-65 -45 -11 -12 -60 -50 -110 -83 -49 -33 -101 -70 -115 -83 -14 -13 -50 -34
-80 -47 -31 -14 -75 -41 -99 -61 -39 -33 -138 -86 -160 -86 -5 0 -22 -13 -37
-30 -16 -16 -53 -39 -84 -51 -100 -40 -125 -52 -165 -84 -23 -18 -81 -46 -136
-64 -53 -18 -110 -45 -128 -60 -30 -26 -147 -71 -184 -71 -9 0 -64 -25 -122
-55 -59 -30 -116 -55 -128 -55 -39 0 -160 -38 -245 -75 -59 -26 -121 -43 -215
-60 -73 -12 -159 -32 -192 -44 -127 -47 -194 -61 -349 -76 -89 -9 -228 -27
-311 -40 -278 -46 -422 -57 -725 -57 -306 0 -420 9 -770 61 -107 16 -233 32
-280 36 -132 9 -206 24 -325 65 -60 22 -146 44 -190 51 -125 18 -206 39 -250
64 -41 23 -127 51 -250 80 -38 9 -91 30 -116 46 -50 32 -132 63 -196 74 -23 3
-55 17 -73 30 -42 31 -145 81 -196 94 -23 6 -72 32 -110 57 -38 26 -73 48 -79
50 -5 2 -29 8 -51 14 -23 5 -71 32 -108 59 -37 28 -90 57 -118 67 -28 9 -67
31 -87 49 -20 17 -66 49 -104 69 -37 21 -86 54 -109 73 -23 19 -67 47 -97 63
-31 15 -65 38 -76 50 -11 13 -49 42 -85 65 -36 23 -76 55 -90 70 -14 15 -45
41 -70 58 -25 17 -66 49 -92 71 -26 23 -79 68 -117 101 -146 123 -289 257
-394 367 -192 200 -203 212 -236 261 -18 26 -41 53 -52 60 -11 7 -30 28 -41
47 -12 19 -42 58 -67 87 -80 90 -175 213 -209 272 -18 31 -46 70 -62 86 -15
17 -38 51 -50 77 -12 26 -40 67 -61 92 -22 25 -53 73 -68 108 -16 35 -41 77
-56 93 -15 17 -38 55 -52 85 -42 94 -64 134 -94 168 -16 18 -31 45 -35 60 -13
60 -49 139 -80 174 -19 21 -36 50 -40 65 -19 86 -48 163 -75 200 -34 48 -63
125 -73 195 -4 25 -27 85 -51 132 -30 59 -49 115 -61 174 -19 99 -49 201 -74
252 -25 53 -48 145 -60 245 -13 111 -24 166 -66 325 -39 151 -50 251 -64 570
-19 425 -9 1010 21 1290 10 101 12 108 54 265 31 117 51 223 60 320 7 67 46
198 78 261 8 16 22 65 32 109 33 158 47 205 75 248 29 46 52 111 69 192 5 28
28 82 51 120 22 39 47 95 56 125 24 86 35 111 76 172 20 31 47 85 59 121 11
35 39 88 60 116 22 29 49 78 61 109 11 31 41 84 66 117 25 33 56 84 68 113 12
30 35 68 52 85 17 18 46 61 65 97 19 36 53 85 75 108 22 24 48 60 58 80 9 21
36 58 59 84 23 26 49 62 58 81 9 18 26 42 38 53 12 10 51 56 86 102 36 45 72
88 82 95 9 6 27 26 39 42 25 34 274 298 311 329 13 12 49 46 80 77 86 87 288
269 366 331 39 30 78 65 89 76 10 12 37 31 59 43 23 11 63 41 90 65 27 24 55
44 62 44 7 0 44 25 82 56 37 31 86 65 108 76 22 11 59 36 82 55 23 18 62 43
87 53 24 11 78 44 119 74 41 29 95 60 121 69 25 9 73 34 105 57 32 23 92 54
132 69 41 15 98 44 128 64 29 21 78 44 110 52 58 16 139 52 202 91 20 13 54
26 75 29 65 11 105 25 202 72 64 30 128 51 206 68 62 13 144 36 182 53 107 45
123 50 219 62 134 18 241 39 323 66 113 37 232 53 459 65 114 6 276 14 358 18
258 13 419 11 788 -9z"/>
<path d="M31815 78243 c-11 -2 -63 -13 -115 -25 -52 -11 -104 -25 -115 -31
-40 -20 -153 -123 -176 -160 -13 -21 -39 -57 -57 -80 -61 -79 -66 -97 -70
-275 -6 -221 -3 -235 71 -345 72 -108 154 -193 217 -224 135 -66 186 -85 242
-94 37 -5 757 -9 1730 -8 1366 0 1672 -2 1695 -13 15 -7 36 -29 46 -48 17 -33
18 -99 16 -1215 -1 -1235 3 -1375 40 -1375 21 0 52 128 75 305 8 61 24 137 36
170 40 109 88 259 105 330 9 39 27 86 40 105 28 40 75 151 75 177 1 33 27 93
69 156 22 35 48 88 57 118 9 30 36 82 60 116 24 34 54 88 66 120 12 32 31 69
43 83 13 14 46 63 75 110 29 47 65 99 80 115 15 17 39 53 53 80 14 28 39 64
54 80 16 17 41 47 55 69 28 41 93 117 197 229 l63 68 -7 54 c-12 97 34 155
123 155 25 0 52 9 74 24 20 13 56 36 81 50 25 15 63 44 85 64 72 67 193 167
242 198 27 17 65 45 84 62 19 17 57 43 83 58 26 15 80 51 118 80 39 28 88 58
110 65 22 7 56 27 75 45 31 28 162 94 188 94 5 0 29 15 53 34 24 18 78 45 119
60 41 15 93 37 115 48 116 62 158 79 226 93 41 8 115 35 164 59 55 27 116 48
155 55 36 5 96 15 134 21 39 6 88 20 111 30 22 10 53 22 68 25 30 8 50 35 39
52 -26 39 111 38 -3602 39 -1950 1 -3554 0 -3565 -3z"/>
<path d="M49719 78235 c-3 -2 -91 -9 -195 -14 -389 -20 -544 -41 -633 -85 -39
-19 -134 -43 -241 -60 -70 -12 -115 -26 -175 -57 -44 -22 -122 -51 -174 -65
-52 -13 -105 -32 -119 -41 -61 -44 -82 -55 -165 -85 -49 -17 -105 -45 -125
-61 -20 -16 -73 -47 -117 -68 -44 -21 -93 -51 -109 -68 -16 -17 -51 -38 -77
-46 -26 -9 -69 -35 -95 -58 -26 -23 -75 -62 -110 -87 -190 -137 -283 -214
-432 -361 -142 -141 -198 -202 -222 -242 -12 -21 -33 -45 -47 -54 -14 -9 -38
-39 -54 -67 -15 -28 -53 -80 -84 -115 -31 -35 -66 -84 -79 -110 -13 -25 -38
-59 -55 -75 -17 -16 -40 -54 -52 -85 -11 -30 -35 -72 -54 -92 -37 -42 -75
-109 -75 -134 0 -21 -26 -71 -60 -115 -30 -38 -64 -115 -75 -170 -4 -19 -28
-73 -52 -120 -31 -59 -52 -118 -69 -192 -13 -58 -42 -148 -63 -200 -40 -98
-56 -167 -67 -308 -3 -47 -15 -125 -26 -175 -36 -158 -48 -274 -54 -515 -7
-259 3 -379 51 -600 9 -41 25 -147 35 -236 18 -158 24 -182 86 -324 13 -30 31
-95 40 -145 13 -69 30 -115 70 -194 30 -57 54 -112 54 -122 0 -33 41 -123 76
-168 19 -25 41 -66 48 -91 19 -64 48 -117 90 -164 21 -24 37 -55 41 -79 5 -27
22 -55 56 -93 27 -29 59 -75 73 -102 13 -26 44 -70 69 -97 24 -28 52 -66 62
-85 10 -19 40 -58 66 -87 27 -28 49 -57 49 -62 0 -6 91 -103 203 -214 185
-186 299 -290 378 -342 17 -11 51 -37 77 -58 26 -20 79 -58 117 -84 39 -26 93
-65 122 -88 28 -23 71 -47 95 -53 24 -7 59 -26 78 -43 39 -35 104 -70 165 -89
22 -7 57 -25 77 -41 45 -36 115 -66 183 -81 27 -6 90 -30 138 -55 84 -42 153
-60 292 -78 28 -3 109 -21 180 -39 72 -19 158 -39 193 -45 125 -23 532 -33
1102 -27 631 7 1147 -4 1280 -29 47 -8 135 -30 195 -49 111 -34 212 -56 255
-56 13 0 66 -22 119 -49 53 -27 116 -54 141 -61 52 -14 132 -53 175 -85 17
-13 59 -35 95 -49 35 -15 80 -42 100 -60 19 -19 55 -46 79 -61 24 -15 62 -43
85 -64 22 -20 57 -48 76 -63 51 -37 259 -244 300 -298 19 -25 42 -51 51 -57
10 -7 31 -34 47 -60 16 -27 49 -68 71 -93 23 -25 55 -72 72 -105 17 -33 44
-73 60 -90 15 -16 44 -70 64 -120 20 -49 50 -104 66 -121 22 -22 36 -55 55
-125 14 -51 38 -114 54 -139 29 -45 52 -121 89 -285 11 -49 34 -142 51 -205
42 -158 53 -266 53 -540 0 -271 -13 -395 -55 -535 -16 -55 -39 -140 -50 -190
-42 -193 -50 -221 -78 -261 -17 -23 -42 -86 -59 -144 -21 -74 -38 -112 -59
-134 -29 -31 -82 -136 -82 -162 0 -8 -17 -32 -38 -53 -21 -22 -53 -66 -70 -99
-17 -32 -41 -67 -53 -78 -12 -10 -48 -50 -80 -89 -52 -63 -90 -102 -229 -235
-25 -24 -74 -66 -110 -93 -36 -28 -78 -63 -95 -78 -16 -16 -48 -35 -70 -44
-22 -9 -66 -37 -98 -62 -31 -24 -85 -56 -120 -70 -34 -13 -82 -40 -107 -59
-27 -22 -76 -44 -130 -60 -47 -15 -110 -41 -140 -58 -70 -41 -133 -66 -165
-66 -35 0 -163 -36 -189 -54 -37 -23 -177 -63 -251 -71 -65 -6 -216 -33 -310
-54 -263 -59 -283 -62 -479 -71 -111 -5 -230 -12 -266 -15 -36 -3 -218 -12
-405 -20 -349 -14 -737 -10 -1310 14 -132 6 -415 15 -630 21 -214 5 -473 15
-575 22 -102 6 -340 12 -530 12 -327 1 -349 0 -422 -21 -43 -12 -88 -28 -100
-34 -46 -24 -171 -145 -190 -184 -12 -22 -35 -57 -53 -78 -51 -59 -60 -108
-60 -317 0 -179 1 -187 26 -240 15 -30 41 -70 58 -88 17 -19 40 -50 50 -70 28
-55 22 -51 241 -170 35 -20 87 -39 115 -44 77 -12 4567 -11 4711 2 145 13 223
25 334 51 115 27 167 37 288 54 119 17 203 39 250 66 42 24 134 55 189 63 62
9 149 44 184 73 26 22 89 46 185 70 12 3 43 22 69 44 26 21 52 39 59 39 22 0
151 68 185 98 19 17 55 38 80 48 25 9 78 43 116 74 39 31 86 66 105 77 19 12
49 36 65 53 17 17 56 47 87 66 31 19 67 47 80 62 13 15 41 40 62 56 51 38 336
325 336 338 0 5 24 35 54 66 29 31 61 73 71 92 10 19 33 49 51 67 19 18 51 59
71 90 20 32 56 80 79 108 24 27 50 69 59 93 8 25 30 63 48 86 42 51 74 109 88
159 5 21 25 55 44 76 36 39 68 110 79 176 4 22 21 57 37 77 37 47 65 111 78
180 10 58 44 149 67 186 23 35 44 112 69 252 13 69 33 157 45 195 64 206 80
373 80 834 0 297 -12 572 -30 656 -4 22 -18 76 -30 120 -37 135 -68 266 -81
345 -8 48 -29 111 -60 177 -26 56 -50 121 -54 144 -12 72 -43 149 -74 184 -16
19 -32 42 -34 52 -41 142 -50 161 -86 203 -22 25 -43 56 -46 69 -12 48 -49
117 -81 151 -18 19 -40 54 -48 78 -16 44 -50 94 -100 147 -15 16 -38 50 -51
75 -13 25 -40 61 -60 80 -20 19 -48 56 -61 82 -13 26 -38 58 -55 70 -17 13
-42 41 -55 64 -13 22 -41 57 -62 76 -20 19 -55 55 -77 79 -22 24 -78 80 -125
123 -47 43 -108 101 -137 127 -28 27 -56 49 -62 49 -5 0 -43 27 -82 60 -40 33
-86 67 -103 75 -17 8 -62 40 -101 71 -40 32 -87 60 -112 67 -24 6 -64 28 -89
49 -44 36 -137 78 -173 78 -10 0 -33 11 -52 25 -59 43 -137 75 -252 102 -62
14 -121 32 -132 39 -38 25 -170 62 -260 74 -126 15 -207 28 -300 45 -394 73
-476 79 -1184 95 -567 13 -795 30 -1211 91 -36 5 -119 15 -185 23 -124 15
-197 34 -251 67 -33 20 -135 53 -199 64 -21 4 -76 29 -121 55 -46 27 -102 54
-126 60 -24 6 -76 34 -116 61 -40 28 -97 61 -127 74 -30 14 -65 36 -77 51 -13
14 -43 36 -68 49 -61 31 -176 132 -350 306 -174 175 -261 272 -291 325 -12 21
-39 57 -59 79 -20 22 -45 61 -54 88 -10 26 -37 71 -61 100 -43 53 -75 115 -75
144 0 9 -23 55 -51 103 -36 63 -57 115 -75 186 -13 55 -35 120 -48 145 -47 91
-57 144 -88 469 -16 170 -16 428 0 590 7 69 18 169 23 223 11 101 35 186 68
241 10 17 31 79 45 139 20 79 38 127 70 180 24 39 51 95 60 124 10 29 27 65
39 82 12 16 36 49 54 73 17 24 36 62 42 84 6 22 25 53 42 69 17 17 47 55 66
85 20 30 63 85 97 123 85 96 300 311 355 355 25 20 68 56 96 80 27 24 70 54
95 67 25 13 59 35 75 50 17 14 66 45 110 67 44 22 102 58 129 79 27 22 57 39
67 39 32 0 150 49 191 79 26 19 67 36 117 47 113 25 254 64 267 75 19 16 104
38 194 50 63 9 703 14 2445 18 l2360 6 60 24 c33 14 74 35 90 46 17 12 50 27
75 34 36 11 61 31 130 103 71 75 87 98 101 146 9 31 29 89 44 127 38 98 38
220 0 303 -15 31 -36 86 -47 122 -18 60 -28 73 -116 157 -125 120 -162 139
-309 163 -115 19 -181 20 -2294 20 -1197 0 -2178 -2 -2180 -5z"/>
<path d="M71170 78229 c-570 -36 -639 -45 -811 -108 -31 -11 -116 -30 -188
-41 -105 -16 -147 -28 -204 -56 -39 -19 -76 -38 -82 -43 -5 -4 -50 -16 -100
-26 -65 -12 -108 -28 -155 -56 -72 -42 -154 -79 -176 -79 -20 0 -107 -45 -167
-86 -27 -19 -58 -34 -68 -34 -28 0 -70 -21 -116 -57 -23 -19 -77 -51 -120 -72
-43 -21 -87 -48 -97 -60 -11 -12 -46 -36 -78 -53 -33 -17 -78 -48 -101 -68
-23 -20 -71 -57 -107 -82 -36 -26 -78 -61 -95 -78 -16 -18 -46 -40 -65 -50
-19 -10 -55 -39 -78 -64 -24 -25 -48 -46 -53 -46 -11 0 -305 -295 -389 -391
-30 -34 -63 -76 -73 -93 -11 -17 -38 -51 -62 -76 -23 -25 -55 -65 -70 -90 -15
-25 -48 -67 -72 -93 -24 -26 -54 -69 -65 -95 -12 -26 -35 -60 -53 -77 -18 -16
-43 -56 -55 -88 -13 -32 -39 -78 -59 -102 -39 -47 -61 -88 -81 -149 -7 -21
-34 -71 -60 -110 -29 -42 -55 -95 -64 -130 -8 -32 -35 -93 -59 -135 -30 -51
-51 -105 -65 -165 -12 -49 -32 -104 -46 -125 -36 -51 -54 -109 -77 -240 -11
-62 -27 -127 -35 -144 -37 -71 -81 -273 -94 -432 -13 -152 -41 -408 -45 -415
-1 -3 -8 -71 -15 -152 -13 -165 -4 -365 30 -633 10 -82 22 -190 25 -240 10
-136 31 -252 60 -335 40 -115 62 -197 79 -292 11 -61 29 -113 61 -175 25 -50
51 -119 59 -159 15 -75 38 -126 80 -183 14 -19 29 -51 32 -70 10 -50 47 -132
78 -168 14 -17 39 -63 55 -102 27 -67 49 -103 100 -160 12 -14 24 -36 28 -50
10 -42 32 -80 72 -125 21 -22 52 -66 69 -96 17 -30 45 -68 62 -85 18 -16 41
-48 52 -69 11 -22 41 -62 67 -90 26 -28 59 -69 73 -91 14 -22 72 -88 129 -147
57 -59 113 -118 125 -130 51 -57 289 -275 319 -293 18 -11 53 -39 78 -62 25
-23 62 -51 84 -62 21 -11 56 -36 78 -57 22 -20 65 -52 95 -72 30 -20 77 -53
103 -74 27 -20 66 -43 87 -49 21 -7 60 -30 87 -52 46 -38 155 -97 180 -97 6 0
33 -16 59 -36 52 -40 130 -77 182 -87 19 -4 51 -20 71 -36 44 -35 117 -66 181
-76 25 -4 85 -27 133 -51 90 -45 156 -66 264 -83 34 -5 90 -22 125 -36 123
-51 193 -67 403 -90 77 -9 163 -20 190 -24 189 -32 336 -51 440 -57 66 -3 480
-9 920 -11 937 -6 992 -3 1143 59 136 55 193 90 229 140 17 24 47 62 67 83 62
69 84 127 95 250 9 111 0 275 -19 345 -16 58 -166 236 -247 291 -23 16 -68 35
-100 43 -32 8 -71 20 -88 27 -24 11 -221 15 -990 20 -945 6 -1074 11 -1256 43
-48 9 -138 20 -200 26 -125 11 -257 41 -304 70 -29 17 -61 27 -220 65 -39 10
-104 37 -146 61 -42 24 -82 44 -90 44 -31 0 -142 50 -175 79 -19 17 -40 31
-46 31 -23 0 -122 53 -176 95 -32 23 -74 49 -94 56 -21 7 -59 32 -85 54 -27
23 -70 56 -98 75 -27 18 -72 53 -100 78 -255 227 -441 414 -488 489 -15 24
-38 50 -52 59 -13 8 -36 37 -51 62 -15 26 -49 71 -75 101 -27 30 -55 74 -63
97 -8 24 -35 68 -59 99 -26 31 -57 86 -73 127 -15 40 -40 88 -56 106 -32 37
-54 86 -69 152 -6 25 -30 82 -55 127 -36 66 -49 105 -65 190 -12 60 -30 128
-41 152 -56 122 -62 155 -88 466 -24 290 -25 467 -5 725 23 295 32 354 70 449
39 101 49 137 71 251 10 57 25 100 46 132 30 47 77 169 78 199 0 9 23 51 51
93 28 42 58 101 68 131 10 30 35 75 55 100 21 25 53 76 73 112 19 37 50 84 68
105 19 20 43 55 54 76 11 22 34 54 52 71 17 17 50 57 73 89 37 49 142 156 383
390 30 29 80 70 111 91 31 21 68 51 82 66 14 15 44 36 67 46 23 10 66 38 96
62 30 25 79 56 108 69 30 14 73 41 97 61 24 20 62 42 85 48 50 13 128 52 182
90 22 15 76 37 120 49 44 11 122 40 173 65 74 35 114 48 194 60 92 14 179 35
283 70 147 49 581 69 945 45 163 -11 199 -18 355 -66 61 -19 159 -41 220 -49
92 -13 121 -22 185 -56 41 -22 118 -52 170 -66 61 -16 111 -37 140 -57 48 -34
158 -86 182 -86 9 0 37 -17 64 -39 27 -21 78 -53 114 -71 36 -18 82 -48 104
-67 21 -20 59 -44 85 -56 25 -11 57 -33 70 -48 13 -16 47 -43 75 -61 28 -17
80 -58 116 -92 35 -34 101 -95 145 -136 44 -41 84 -82 89 -90 5 -8 34 -40 65
-70 31 -30 74 -78 95 -105 22 -28 55 -65 73 -83 18 -18 40 -49 48 -69 8 -20
33 -56 56 -80 22 -24 49 -64 59 -89 11 -25 40 -71 64 -102 47 -61 76 -112 76
-135 0 -8 25 -52 55 -98 34 -53 58 -104 65 -137 12 -55 49 -139 82 -185 12
-16 29 -71 39 -125 18 -95 36 -154 85 -278 24 -62 28 -93 59 -471 13 -158 15
-803 15 -5010 0 -3310 3 -4848 11 -4892 5 -36 18 -88 28 -115 38 -106 44 -122
58 -157 22 -53 148 -176 215 -209 31 -15 69 -37 85 -48 106 -75 388 -67 498
14 17 12 54 32 82 44 69 29 197 168 213 232 10 38 22 77 61 204 5 19 9 1874 9
4905 -1 4755 -1 4879 -20 5074 -11 110 -26 259 -35 330 -8 72 -19 168 -24 215
-10 89 -39 195 -71 267 -11 23 -26 84 -35 135 -25 141 -46 208 -80 259 -17 25
-36 72 -43 105 -21 99 -42 155 -84 221 -22 35 -44 83 -49 106 -11 49 -50 127
-90 177 -15 19 -31 49 -35 65 -10 46 -38 96 -81 148 -21 26 -47 69 -57 97 -10
28 -31 63 -48 78 -16 15 -43 53 -60 86 -18 32 -51 79 -73 105 -23 25 -60 73
-82 106 -22 33 -53 71 -68 85 -15 14 -42 49 -61 78 -19 29 -41 55 -49 59 -9 3
-29 24 -45 48 -36 53 -326 342 -360 360 -14 7 -42 31 -63 54 -21 23 -55 50
-75 60 -20 11 -50 34 -67 51 -16 18 -55 49 -86 70 -30 21 -80 59 -110 85 -30
26 -76 57 -104 69 -27 13 -59 33 -70 46 -11 12 -51 38 -88 56 -37 19 -94 54
-127 78 -32 24 -80 49 -106 55 -26 7 -64 25 -83 40 -46 36 -126 77 -171 86
-19 4 -80 31 -135 60 -63 34 -128 59 -175 70 -41 9 -102 29 -135 45 -104 49
-157 66 -250 79 -49 7 -132 26 -184 43 -178 57 -233 67 -451 83 -118 8 -273
20 -345 25 -146 11 -297 11 -495 -1z"/>
<path d="M56775 78200 c-97 -10 -160 -31 -200 -70 -16 -16 -51 -38 -77 -50
-43 -19 -98 -73 -98 -97 0 -5 -20 -33 -45 -62 -28 -33 -51 -74 -62 -109 -17
-54 -18 -403 -18 -6937 0 -3784 4 -6906 8 -6937 6 -41 18 -72 42 -105 19 -27
43 -61 52 -78 21 -36 157 -174 196 -200 33 -21 181 -52 292 -61 58 -4 101 -1
155 11 41 9 95 21 120 26 24 5 61 20 81 33 57 38 159 136 176 170 9 17 33 51
54 76 23 28 42 64 50 95 14 61 31 96 74 155 18 25 40 72 50 105 20 71 38 108
77 156 16 20 36 63 44 95 18 68 43 119 78 161 14 16 38 69 55 117 17 48 47
110 67 137 20 28 47 83 59 123 26 85 40 113 71 144 13 13 37 66 54 117 19 57
45 111 65 137 20 25 45 76 61 126 15 47 39 98 54 116 36 41 45 59 74 149 13
41 40 95 59 121 36 46 77 141 77 175 0 11 18 42 40 70 27 34 49 79 67 133 14
46 38 99 53 118 38 49 67 109 81 166 7 27 27 70 45 95 39 53 84 146 84 172 0
22 26 75 50 102 27 29 67 114 74 158 4 20 28 67 53 105 27 38 54 93 64 128 18
66 31 92 84 168 19 28 39 73 45 103 7 34 28 79 57 121 25 37 56 101 69 142 14
41 44 104 68 140 25 36 53 96 65 135 12 43 36 91 60 124 22 30 47 79 56 110
23 81 44 127 71 152 14 13 33 52 44 90 27 91 51 119 100 119 36 0 47 -7 117
-79 43 -43 112 -115 153 -161 41 -45 95 -103 120 -130 25 -26 83 -89 130 -140
47 -51 101 -109 121 -129 20 -20 96 -101 170 -181 73 -80 163 -176 199 -215
123 -131 195 -210 275 -300 43 -49 106 -119 138 -155 32 -36 84 -93 115 -128
32 -34 82 -89 112 -122 30 -33 81 -88 113 -122 31 -35 85 -93 120 -129 34 -37
96 -104 137 -149 41 -45 100 -108 130 -139 69 -70 399 -426 506 -544 43 -49
135 -150 202 -225 68 -75 151 -168 185 -206 34 -38 85 -92 112 -122 28 -29 82
-87 120 -129 100 -110 202 -219 260 -279 28 -29 102 -108 165 -176 63 -69 151
-163 195 -210 93 -99 172 -186 270 -296 39 -43 99 -110 134 -149 35 -38 91
-101 125 -139 34 -38 84 -92 112 -120 28 -28 61 -66 73 -83 12 -18 43 -47 69
-65 26 -17 65 -47 87 -66 52 -44 96 -59 228 -77 109 -15 212 -11 340 14 60 11
132 59 226 153 126 125 134 141 163 350 11 78 10 98 -10 201 -24 129 -49 192
-92 231 -16 14 -42 45 -56 68 -15 24 -47 64 -73 89 -25 25 -75 79 -111 118
-36 40 -90 99 -120 130 -146 152 -306 325 -333 361 -17 22 -34 40 -37 40 -6 0
-46 44 -363 395 -153 169 -220 243 -284 313 -29 31 -112 122 -184 202 -128
141 -272 297 -434 470 -294 314 -459 495 -653 713 -157 177 -180 202 -226 248
-27 26 -56 59 -66 74 -15 23 -170 190 -310 335 -30 31 -82 86 -115 121 -33 36
-114 122 -179 193 -66 70 -134 144 -150 164 -17 20 -54 62 -82 92 -56 60 -151
166 -247 274 -34 39 -84 93 -112 121 -27 28 -62 67 -76 85 -15 19 -46 55 -70
80 -25 25 -184 196 -355 380 -294 317 -384 424 -384 456 0 8 13 38 29 67 17
28 35 75 41 102 6 28 28 75 49 105 51 74 67 107 76 157 4 24 21 61 39 85 42
54 72 113 81 158 4 19 33 80 66 136 32 55 59 109 59 120 1 28 33 94 79 163 23
33 41 64 41 69 0 33 38 122 74 176 27 38 51 88 60 125 16 62 29 88 77 151 15
19 36 67 48 106 11 39 39 99 61 132 23 33 52 93 65 133 26 75 64 147 88 167 8
7 27 52 42 101 19 59 40 102 62 127 23 27 43 68 63 134 22 70 38 104 60 125
21 20 38 54 55 108 29 90 38 108 75 157 15 19 42 76 60 127 18 50 40 100 50
111 27 28 76 131 84 173 4 20 17 52 31 70 52 73 74 117 90 179 9 37 27 76 40
90 35 36 70 107 85 170 7 30 25 71 40 90 43 56 69 108 81 158 7 26 34 83 62
126 27 44 56 104 64 134 8 31 36 90 63 131 27 42 54 99 61 126 7 28 32 82 57
120 25 39 55 102 67 141 12 38 40 98 63 131 23 34 55 99 70 145 16 47 44 105
63 130 21 27 47 81 62 130 17 53 39 99 60 124 36 42 47 66 72 159 10 35 28 73
45 90 35 38 52 72 78 160 13 40 36 88 55 112 20 25 45 77 61 125 15 46 41 100
57 121 34 42 73 125 84 177 4 19 19 51 35 70 38 50 68 110 85 177 8 31 26 68
39 82 32 34 60 93 81 166 9 33 29 76 45 95 35 46 64 102 83 165 8 28 35 91 59
140 l43 90 0 140 0 140 -63 125 c-35 68 -75 138 -89 155 -26 31 -129 107 -219
162 -85 52 -269 65 -441 32 -35 -7 -69 -23 -100 -48 -27 -20 -62 -43 -80 -50
-35 -14 -170 -158 -196 -208 -10 -18 -17 -41 -17 -51 0 -11 -15 -42 -33 -68
-61 -91 -78 -122 -93 -181 -8 -33 -35 -88 -61 -127 -25 -37 -50 -87 -55 -110
-14 -59 -35 -103 -79 -165 -22 -30 -39 -60 -39 -67 0 -31 -35 -113 -71 -170
-22 -34 -53 -98 -69 -143 -15 -44 -46 -108 -68 -140 -22 -33 -48 -86 -58 -118
-21 -72 -39 -108 -74 -153 -15 -19 -40 -74 -54 -121 -17 -55 -35 -94 -52 -110
-31 -29 -46 -62 -73 -155 -12 -40 -28 -77 -36 -84 -27 -23 -56 -79 -86 -168
-17 -48 -41 -98 -54 -112 -28 -29 -71 -121 -80 -173 -4 -20 -25 -60 -47 -89
-45 -61 -65 -103 -80 -171 -5 -27 -22 -63 -38 -80 -37 -43 -68 -106 -81 -166
-6 -28 -25 -69 -43 -93 -42 -55 -72 -114 -80 -158 -3 -20 -31 -76 -61 -125
-30 -50 -58 -106 -61 -125 -7 -38 -35 -93 -89 -180 -19 -30 -35 -64 -35 -75 0
-27 -39 -108 -84 -174 -20 -29 -36 -59 -36 -67 0 -32 -35 -113 -72 -165 -22
-32 -49 -90 -63 -136 -15 -49 -39 -98 -61 -127 -21 -28 -50 -88 -69 -142 -19
-55 -45 -108 -63 -128 -16 -19 -40 -65 -52 -103 -29 -91 -51 -143 -62 -143
-14 0 -47 -61 -64 -120 -26 -90 -36 -110 -70 -151 -20 -24 -43 -71 -60 -125
-15 -47 -37 -98 -50 -114 -32 -37 -68 -113 -88 -181 -8 -31 -30 -73 -47 -95
-36 -45 -62 -99 -79 -167 -7 -26 -26 -64 -43 -85 -34 -42 -62 -104 -79 -171
-6 -25 -24 -63 -41 -84 -34 -44 -77 -130 -77 -155 0 -20 -20 -59 -77 -152 -22
-36 -45 -87 -52 -115 -7 -27 -34 -84 -61 -125 -27 -41 -54 -97 -60 -124 -12
-56 -29 -90 -75 -155 -18 -25 -42 -77 -53 -116 -13 -42 -39 -96 -67 -134 -25
-36 -45 -74 -45 -85 -1 -32 -42 -126 -82 -183 -19 -28 -48 -89 -62 -134 -16
-49 -40 -100 -60 -124 -18 -22 -41 -65 -51 -95 -40 -122 -48 -139 -76 -166
-27 -26 -44 -67 -69 -161 -5 -22 -27 -62 -48 -87 -26 -31 -47 -73 -65 -133
-16 -47 -41 -103 -57 -123 -33 -42 -74 -130 -84 -182 -3 -20 -20 -53 -37 -74
-42 -53 -64 -99 -83 -168 -8 -34 -29 -76 -47 -99 -35 -43 -78 -139 -79 -173 0
-11 -17 -45 -39 -75 -49 -69 -65 -102 -80 -162 -11 -47 -32 -88 -59 -116 -21
-22 -58 -103 -71 -154 -6 -27 -32 -80 -57 -118 -26 -38 -55 -98 -65 -133 -10
-34 -38 -92 -61 -127 -22 -35 -50 -93 -61 -129 -10 -36 -39 -94 -62 -130 -24
-36 -53 -97 -64 -135 -13 -43 -38 -95 -66 -135 -25 -35 -45 -68 -45 -74 0 -5
-10 -45 -21 -88 -15 -56 -28 -84 -44 -94 -31 -20 -69 -4 -92 38 -17 32 -18
258 -23 5383 l-5 5350 -27 51 c-15 28 -38 65 -52 82 -15 16 -26 33 -26 36 0 4
-15 31 -34 60 -25 39 -46 59 -81 75 -26 12 -58 33 -72 47 -47 47 -120 75 -217
85 -100 9 -97 9 -211 -1z"/>
<path d="M35326 72839 c-26 -119 -27 -331 -26 -4530 0 -2626 4 -4379 10 -4413
7 -46 23 -78 81 -164 91 -136 91 -136 169 -186 137 -89 193 -115 271 -126 148
-22 322 8 394 68 16 14 50 33 75 44 55 24 75 41 108 93 14 22 40 55 58 73 36
35 46 63 69 194 13 75 15 489 15 3229 0 1995 -4 3168 -10 3209 -5 36 -10 84
-10 107 0 38 -8 50 -88 140 -145 162 -241 280 -274 336 -16 28 -45 69 -64 89
-18 21 -40 54 -49 74 -8 20 -38 66 -66 102 -29 36 -62 92 -75 125 -13 34 -34
72 -47 86 -36 40 -52 70 -81 150 -15 41 -39 88 -54 105 -15 17 -38 65 -50 106
-13 41 -45 120 -71 175 -28 58 -59 146 -75 210 -15 60 -32 115 -37 121 -23 28
-75 204 -84 283 -14 123 -52 289 -71 310 -11 12 -14 10 -18 -10z"/>
<path d="M67229 69905 c-79 -16 -169 -70 -269 -163 -113 -105 -119 -117 -171
-340 -19 -82 -19 -137 -16 -2760 l3 -2677 22 -70 c12 -38 27 -92 33 -118 9
-40 26 -66 95 -142 68 -74 94 -97 131 -109 25 -9 60 -27 77 -40 105 -80 376
-89 490 -17 17 11 56 32 86 46 83 39 230 190 230 236 0 11 13 47 29 81 16 35
34 88 41 118 8 41 10 756 8 2760 l-3 2705 -37 81 c-21 45 -38 87 -38 94 0 26
-62 109 -118 158 -32 27 -94 73 -138 101 -66 41 -93 52 -150 61 -93 13 -224
11 -305 -5z"/>
</g>
</svg>
